<?xml version="1.0" encoding="UTF-8" standalone="no"?>
<!-- Created with Inkscape (http://www.inkscape.org/) -->

<svg
   width="48"
   height="48"
   viewBox="0 0 12.7 12.7"
   version="1.1"
   id="svg5"
   inkscape:version="1.3 (0e150ed6c4, 2023-07-21)"
   sodipodi:docname="chip_broken.svg"
   inkscape:export-filename="chip_broken.png"
   inkscape:export-xdpi="96"
   inkscape:export-ydpi="96"
   xmlns:inkscape="http://www.inkscape.org/namespaces/inkscape"
   xmlns:sodipodi="http://sodipodi.sourceforge.net/DTD/sodipodi-0.dtd"
   xmlns="http://www.w3.org/2000/svg"
   xmlns:svg="http://www.w3.org/2000/svg">
  <sodipodi:namedview
     id="namedview7"
     pagecolor="#ffffff"
     bordercolor="#000000"
     borderopacity="0.25"
     inkscape:showpageshadow="false"
     inkscape:pageopacity="0.0"
     inkscape:pagecheckerboard="true"
     inkscape:deskcolor="#d1d1d1"
     inkscape:document-units="mm"
     showgrid="false"
     inkscape:zoom="7.1410774"
     inkscape:cx="23.315809"
     inkscape:cy="7.4918667"
     inkscape:window-width="2560"
     inkscape:window-height="1369"
     inkscape:window-x="1912"
     inkscape:window-y="-8"
     inkscape:window-maximized="1"
     inkscape:current-layer="layer1" />
  <defs
     id="defs2">
    <rect
       x="0.14003489"
       y="0.28006978"
       width="47.611863"
       height="47.051723"
       id="rect446" />
  </defs>
  <g
     inkscape:label="Layer 1"
     inkscape:groupmode="layer"
     id="layer1">
    <path
       id="path234"
       style="display:inline;fill:#808080;stroke-width:0.264583"
       d="M 6.7577271 0.057877604 L 6.7577271 1.2960449 A 5.057379 5.1200708 45 0 1 9.667627 2.4659993 L 10.535791 1.5978353 A 6.3415627 6.3415627 0 0 0 6.7577271 0.057877604 z M 5.9422729 0.058911133 A 6.3415627 6.3415627 0 0 0 2.1848796 1.5978353 L 3.0943848 2.5078573 A 5.057379 5.1200708 45 0 1 5.9422729 1.3094808 L 5.9422729 0.058911133 z M 6.7530762 2.1559408 A 4.1820634 4.2339046 45 0 0 3.4028931 3.3930745 A 4.1820634 4.2339046 45 0 0 3.3662028 9.3441325 A 4.1820634 4.2339046 45 0 0 9.3172607 9.3074422 A 4.1820634 4.2339046 45 0 0 10.554395 5.9577759 A 4.1820634 4.2339046 45 0 0 9.353951 3.3563843 A 4.1820634 4.2339046 45 0 0 6.7530762 2.1559408 z M 1.5983521 2.1647257 A 6.3415627 6.3415627 0 0 0 0.058394368 5.9422729 L 1.3063802 5.9422729 A 5.057379 5.1200708 45 0 1 2.5078573 3.0747477 L 1.5983521 2.1647257 z M 11.1125 2.1745443 L 10.244336 3.0427083 A 5.057379 5.1200708 45 0 1 11.413774 5.9422729 L 12.651424 5.9422729 A 6.3415627 6.3415627 0 0 0 11.1125 2.1745443 z M 0.059427897 6.7577271 A 6.3415627 6.3415627 0 0 0 1.607137 10.526489 L 2.4753011 9.6583252 A 5.057379 5.1200708 45 0 1 1.2970785 6.7577271 L 0.059427897 6.7577271 z M 11.402922 6.7577271 A 5.057379 5.1200708 45 0 1 10.202478 9.6159505 L 11.1125 10.525456 A 6.3415627 6.3415627 0 0 0 12.651424 6.7577271 L 11.402922 6.7577271 z M 9.6355876 10.202478 A 5.057379 5.1200708 45 0 1 6.7577271 11.405505 L 6.7577271 12.652974 A 6.3415627 6.3415627 0 0 0 10.54561 11.111983 L 9.6355876 10.202478 z M 3.0520101 10.235034 L 2.183846 11.103198 A 6.3415627 6.3415627 0 0 0 5.9422729 12.649874 L 5.9422729 11.413257 A 5.057379 5.1200708 45 0 1 3.0520101 10.235034 z " />
    <rect
       style="fill:#ffffff;stroke-width:0.264583"
       id="rect1-5-5-8"
       width="0.81511974"
       height="1.9266467"
       x="4.6090693"
       y="-20.712063"
       transform="rotate(90)" />
  </g>
</svg>
